<?xml version='1.0' encoding='utf-8'?>
<svg xmlns="http://www.w3.org/2000/svg" version="1.1" id="Layer_1" x="0px" y="0px" viewBox="0 0 612 792" style="enable-background:new 0 0 612 792;"> <style type="text/css"> .st0{fill:#A5DAED;stroke:#27AAE1;stroke-width:6;stroke-miterlimit:10;} .st1{opacity:0.25;fill:#27AAE1;} .st2{fill:#BF68A9;} .st3{fill:#92278F;} .st4{fill:#F3D7E8;} .st5{fill:#EAC5DE;} .st6{fill:#E5BBD8;} .st7{fill:#DBA1C9;} .st8{fill:none;} .st9{fill:#D8ABCC;} .st10{fill:#B370A1;} .st11{fill:#101415;} .st12{fill:#CDD152;} .st13{fill:#94914B;} .st14{fill:#FFFFFF;} .st15{fill:#EAEA8F;} .st16{fill:#5F2E91;} </style> <path class="st0" d="M555.6,451.11c0,142.95-115.88,258.84-258.83,258.84c-3.68,0-7.33-0.07-10.97-0.23 c-18.37-0.77-36.25-3.45-53.44-7.85C120.57,673.25,37.93,571.83,37.93,451.11c0-140.59,112.09-255,251.78-258.73 c2.34-0.07,4.69-0.1,7.05-0.1c17.13,0,33.87,1.66,50.07,4.84c14.02,2.75,27.63,6.62,40.74,11.54c9.97,3.74,19.64,8.07,28.99,12.96 C499.2,264.83,555.6,351.39,555.6,451.11z"/> <path class="st1" d="M448.12,347.87c-5.29-20.11-3.53-40.49-8.4-60.58c-6.56-27.08-30.06-48.39-51.41-64.8 c-32.19-24.73-74.95-40.67-113.79-21.36c-8.67,4.31-16.69,10.12-25.97,12.87c-21.46,6.36-45.84,2.79-52.52,29.92 c-2.71,11.01-4.31,21.77-6.92,32.83c-4.83,20.45-13.53,28.51-25.4,44.78c-27.11,37.15-32.48,94.29-21.98,137.94 c4.87,20.24,13.89,39.01,20.69,58.59c4.91,14.14,4.41,29.37,8.23,43.74c3.84,14.46,11.05,19.73,22.07,29.28 c12.96,11.22,21.25,21.74,22.38,40.1c1.47,23.98,2.75,53.97,17.25,70.67c17.19,4.4,35.07,7.08,53.44,7.85 c13.83-6.99,24.25-19.71,41.96-19.67c17.54,0.03,24.89,1.88,36.68-14.57c18.75-26.13,5.98-48.85,4.63-77.43 c-1.12-23.77,10.95-39.55,26.63-56.38c11.56-12.4,25.58-19.81,34.04-35.09c10.31-18.61,14.84-38.97,20.15-59.38 c4.99-19.2,7.97-40.29,6.56-60.18C455.5,373.64,451.53,360.81,448.12,347.87z"/> <g> <path class="st2" d="M405.8,152.75L405.8,152.75c-1.02,6.53-2.62,13.03-4.79,19.46c-2.16,6.41-4.89,12.74-8.16,18.94 c-0.55,1.03-1.1,2.06-1.68,3.08c-3.75,6.66-8.07,12.75-12.76,18.3c-8.72,10.34-18.7,18.85-28.56,25.87 c-9.38,6.69-18.66,12.02-26.63,16.29c-3.22,1.73-6.66,2.63-10.09,2.77c-8.77,0.38-17.39-4.17-21.81-12.42 c-6.14-11.48-1.82-25.76,9.65-31.9c2.8-1.5,5.48-3,8.04-4.5c7.57-4.43,14.15-8.89,19.82-13.44c5.24-4.21,9.71-8.5,13.46-12.94 c3.06-3.6,5.63-7.3,7.79-11.13c1.06-1.9,2.05-3.81,2.95-5.73c1.02-2.17,1.92-4.35,2.71-6.53c2.03-5.58,3.35-11.2,3.92-16.74 c0.36-3.4,0.43-6.77,0.22-10.09c-0.07-1.1-0.18-2.2-0.31-3.29c-1.08-8.67-4.17-16.57-9.23-23.59c-1.46-2.03-3.08-3.99-4.87-5.86 c-0.21-0.22-0.42-0.44-0.64-0.67c-4.48-4.57-9.61-7.45-14.06-7.92c-1.31-0.13-2.74-0.09-4.26,0.15c-2.37,0.36-4.94,1.16-7.54,2.36 c-4,1.84-7.84,4.49-10.5,8.06c-2.48,3.34-2.32,7.13-2.07,10.97c0.11,1.73,0.24,3.47,0.15,5.18c-0.32,5.94-1.91,11.8-4.56,17.12 c-6.09,12.18-16.09,23.19-28.65,12.25c-1.8-1.58,0.04-14.25-1.35-16.19c-0.69-0.96-4.79,8.93-5.35,7.88 c-5.49-10.21-4.15-22.96-1.14-34.17c0.57-2.16,1.21-4.27,1.88-6.28c-0.14,0.42-2.94,3.2-3.39,3.88c-1.52,2.26-2.59,4.74-4.36,6.85 c-1.06-11.03,2.39-21.77,8.4-31.17c7.63-11.94,19.38-21.7,31.22-27.17c1.78-0.82,3.56-1.57,5.36-2.24 c4.89-1.84,9.84-3.14,14.77-3.89c5.51-0.85,10.97-1,16.29-0.45c8.18,0.86,16.3,3.43,23.95,7.53c6.77,3.62,13.15,8.42,18.87,14.26 c11.03,11.25,19.05,24.4,23.74,38.81v0.01c2.56,7.84,4.14,16.06,4.69,24.55C407.42,136.87,407.04,144.82,405.8,152.75z"/> </g> <path class="st3" d="M378.41,212.53c-8.72,10.34-18.7,18.85-28.56,25.87c-6.66,0.61-13.42-0.01-20.1-0.73 c-5-0.54-10.23-1.21-14.33-4.11c-5.76-4.07-7.99-11.79-7.34-18.8c0.16-1.73,0.44-3.88,0.94-6.11l19.82-13.44 c0.37,0.01,0.73,0.01,1.08,0.01c5.81-0.07,11.62-0.15,17.43-0.24c5.07-0.07,10.2-0.13,15.14,1c4.95,1.12,9.77,3.57,12.78,7.65 C377.19,206.21,378.2,209.32,378.41,212.53z"/> <path class="st4" d="M430.12,432.83c-1.12,5.98-2.41,11.98-3.78,18c-0.18,0.77-0.38,1.58-0.61,2.4 c-5.4,19.88-24.38,53.45-49.12,45.91c-0.12,0.1-0.23,0.2-0.34,0.31c-5.82,5.02-9.23,11.84-11.26,19.25c-1.27,4.63-2,9.49-2.44,14.29 c-0.83,8.97-2.24,18.72-6.71,26.22c-0.92,1.55-1.97,3-3.19,4.34c-1.17,1.31-2.51,2.5-4.01,3.55c-3.37,2.35-8.13-7.39-11.07-4.54 c-0.57,0.55-0.5,2.15-0.57,2.87c-0.18,1.8-0.26,3.62-0.36,5.42c-0.3,5.24-1.61,10.37-1.88,15.59c-0.26,5.15,0.33,10.36,2.44,15.11 c0.03,0.07-0.23,0.32-0.2,0.4c-0.46,0.38-0.44,0.8-0.44,1.58c0.01,2.55,0.4,4.87,2.03,6.9c0.71,0.88,2.11,0.85,3,0.26 c0.01,0.03,0.03,0.06,0.04,0.09c3.49,7.32,6.42,14.83,4.9,22.59c-0.38,1.9-0.93,3.8-1.64,5.69c-0.49,1.33-1.07,2.63-1.72,3.9 c-4.09,8.04-10.99,14.99-19.16,17.36c-10.74,3.12-23.03,0.01-31.08-7.73c-0.3-0.28-0.57-0.56-0.84-0.84 c-0.15-0.15-0.3-0.31-0.44-0.46c-0.11,0.58-0.24,1.16-0.38,1.74l0.01,0.05c-0.08,0.31-0.16,0.63-0.24,0.94 c-0.05,0.2-0.1,0.4-0.15,0.61c-0.53,2.08-1.14,4.12-1.84,6.15c-0.01,0.03-0.02,0.05-0.03,0.07c-0.48,1.37-0.99,2.72-1.55,4.05 c-2.93,7.07-6.94,13.69-11.87,19.55c-4.4,5.22-11.24,8.02-17.87,9.66c-6.62,1.64-13.97,0.99-19.73-2.67 c-4.96-3.16-8.37-8.29-10.37-13.86c-0.36-1.01-0.68-2.03-0.96-3.04c-0.47-1.79-0.83-3.61-1.1-5.44c-0.73-5.02-0.79-10.16-0.84-15.26 c-0.05-6.34,3.7-9.01,7.52-13.32c0.76-0.85,1.51-1.77,2.24-2.79c1.2-1.67,2.2-3.42,3.05-5.24c5.35-11.53,4.17-25.63,2.73-38.58 c-0.36-3.19-3.68-11.53-4.15-11.82c-3.47-2.18-8.66,0.39-12.95,0.18c-7.2-0.36-14.03-4.22-18.41-9.92c-0.92-1.18-1.72-2.44-2.4-3.76 c-0.66-1.29-1.21-2.65-1.62-4.05c-5.98-20.62,0.79-42.78,3.92-64.03c1.04-7.02-1.14-11.67-4.65-15.48c-0.05-0.07-0.11-0.14-0.18-0.2 c-3.87-4.14-9.27-7.33-13.72-11.58c-2.73-2.61-5.51-6.02-8.18-9.85c-6.08-8.73-11.49-19.64-13.94-28.09 c-0.13-0.48-0.26-0.95-0.38-1.41c-7.37-28.56-5.51-56.69,4.44-85c5.43-15.44,12.58-26.52,22.29-39.69 c7.14-9.68,11.66-20.28,16.89-31c4.88-10.02,11.22-19.17,18.01-27.97c1.46-1.89-0.42-4.3-2.18-4c-0.92-8.04-5.24-14.71-9.99-21.13 c0.44-0.65,0.95-1.23,1.58-1.71c2.41-1.82,5.76-1.65,8.72-1.12c7.39,1.33,15.79,5,21.78,9.51c0.24-0.35,0.48-0.69,0.74-1.04 c13.53-18.84,38.14-28.17,61.3-26.18c23.59,2.02,45.43,14.58,61.93,31.56c0.35,0.05,0.69,0.07,1.04,0.08 c5.8,0.08,11.7-6.03,16.3-9.65c1.77-1.39,3.89-2.66,6.09-3.49c3.84-1.47,7.92-1.64,10.73,1.14c3.53,3.49,2.62,9.28,1.7,14.16 c-0.2,1.06-0.39,2.12-0.57,3.18c-0.96,5.83-1.57,11.71-1.81,17.62c-1.39,1.64-2.67,3.38-3.57,5.29c-0.2,0.11-0.38,0.24-0.55,0.38 c-0.2-0.26-0.4-0.53-0.6-0.78c-1.84-2.38-5.82,0.15-3.96,2.55c3.29,4.25,7.52,8.09,9.26,13.15c6.54,19.04,7.94,39.69,17.72,57.28 C437.62,367.08,436.38,399.57,430.12,432.83z"/> <path class="st5" d="M430.12,432.83c-1.12,5.98-2.41,11.98-3.78,18c-0.18,0.77-0.38,1.58-0.61,2.4c-1.04-0.4-2.09-0.87-3.14-1.39 c-29.7-14.88-22.05-66.45-28.25-93.1c-4.92-21.15-4.51-77.25-35.79-88.5c-44.61-16.02-75.96-11.53-114.53,21.07 c-22.43,18.96-26.45,42.34-34.86,72.1c-8.33,29.49,1.32,80.17-26.95,97.58c-1.46,0.9-2.88,1.69-4.27,2.38 c-6.08-8.73-11.49-19.64-13.94-28.09c-0.13-0.48-0.26-0.95-0.38-1.41c-7.37-28.56-5.51-56.69,4.44-85 c5.43-15.44,12.58-26.52,22.29-39.69c7.14-9.68,11.66-20.28,16.89-31c4.88-10.02,11.22-19.17,18.01-27.97c1.46-1.89-0.42-4.3-2.18-4 c-0.92-8.04-5.24-14.71-9.99-21.13c0.44-0.65,0.95-1.23,1.58-1.71c2.41-1.82,5.76-1.65,8.72-1.12c7.39,1.33,15.79,5,21.78,9.51 c0.24-0.35,0.48-0.69,0.74-1.04c13.53-18.84,38.14-28.17,61.3-26.18c23.59,2.02,45.43,14.58,61.93,31.56 c0.35,0.05,0.69,0.07,1.04,0.08c5.8,0.08,11.7-6.03,16.3-9.65c1.77-1.39,3.89-2.66,6.09-3.49c4.11,6.03,7.9,12.34,11.86,18.49 c-0.96,5.83-1.57,11.71-1.81,17.62c-1.39,1.64-2.67,3.38-3.57,5.29c-0.2,0.11-0.38,0.24-0.55,0.38c-0.2-0.26-0.4-0.53-0.6-0.78 c-1.84-2.38-5.82,0.15-3.96,2.55c3.29,4.25,7.52,8.09,9.26,13.15c6.54,19.04,7.94,39.69,17.72,57.28 C437.62,367.08,436.38,399.57,430.12,432.83z"/> <path class="st6" d="M319.55,394c-3.97,2.27-7.84,5.31-12.41,5.43c-4.75,0.13-8.9-2.93-13.27-4.79c-5.37-2.28-11.47-2.8-17.15-1.43 c-3.05,0.73-6.25,2.26-7.43,5.17c-1.1,2.7-0.12,5.78,1.19,8.38c4.05,8.02,11.29,14.22,19.55,17.76c8.26,3.53,16.22-5.09,25.16-5.96 c8.75-0.85,7.26-1.86,13.52-8.04c5.13-5.07,22.28-9.37,16.61-15.94C339.26,387.56,326.37,390.1,319.55,394z"/> <path class="st7" d="M359.42,376.5c-0.04-0.38-0.1-0.74-0.15-1.1c-3.05,3.6-7.69,5.68-12.08,7.17c-0.09,0.03-0.17,0.04-0.25,0.06 c-0.37,0.88-0.81,1.72-1.33,2.51c-2.97,4.49-7.98,7.34-13.2,8.66c-5.23,1.32-10.69,1.26-16.07,0.92c-3.78-0.23-7.33-1.81-10.96-0.72 c-3.05,0.92-5.89,2.4-8.67,3.97c-0.36-1.84-2.84-2.17-4.74-2.15c-6.55,0.08-13.46-1.06-18.57-5.17c-0.29-0.24-0.58-0.49-0.86-0.75 c-4.27-0.01-8.1-0.7-11.59-2.21c0.51,3.2,0.33,6.56,1.41,9.63c1.6,4.57,5.58,7.87,6.7,12.66c0.44,1.88-2.18,7.04-2.36,8.93 c0,0,8.88-4.43,8.41-2.01c-1.12,5.86-7.65,17.34-7.34,17.83c4.59-0.15,16.4-7.14,16.64-5.08c0.2,1.71,0.26,3.41,0.3,5.12 c5.89-0.95,5.83-6.97,5.83-6.97l5.04,5.92c3.49-0.89,5.79-4.97,7.83-6.62c1.4-1.13,6.05,5.28,6.26,5.32 c1.21-1.65,2.21-3.46,3.24-5.28c1.5-2.64,1.99,6.09,0.77,7.82c12.23-1.58,15.15-13.12,16.27-14.43c0.88-1.04,3.76,5.8,4.06,6.05 c7.21-1.03,6.65-8.6,7.54-14.13c0.54-3.33,2.01-6.06,4.06-8.73c1.4-1.83,3.02-3.48,4.82-4.92c1.24-0.99,5.19-2.39,5.88-3.56 C359.33,390.1,360.13,382.65,359.42,376.5z M288.22,407.01c-3.27,0.13-6.72-0.56-9.91-1.24c-3-0.64-6.47-1.35-8.86-3.4 c-2.3-1.98,1.04-5.3,3.33-3.33c1.81,1.55,5.36,1.91,7.59,2.35c2.56,0.51,5.23,1.01,7.85,0.9 C291.26,402.17,291.24,406.88,288.22,407.01z M333.28,403.39c-5.8,2.75-11.92,3.77-18.3,2.95c-2.97-0.38-3-5.1,0-4.71 c5.52,0.71,10.86,0.09,15.92-2.31C333.63,398.03,336.02,402.1,333.28,403.39z"/> <path class="st7" d="M365,518.71c-0.86,3.15-1.47,6.4-1.91,9.67c-0.22,1.54-0.38,3.09-0.53,4.62c-0.83,8.97-2.23,18.72-6.71,26.22 c-0.92,1.55-1.97,3-3.19,4.34c-1.74,1.9-3.78,3.56-6.11,4.69c-1.95,0.95-4.67,2.1-6.93,1.6c-1-3.07-2.2-8.75-2.02-10.56 c0-0.01,0-0.01,0-0.01c0.01-0.12,0.03-0.22,0.05-0.31c2.65-8.53,6.27-16.75,10.81-24.44c0.46-0.77,0.92-1.53,1.39-2.29 c0.17-0.28,0.34-0.57,0.53-0.84c0.3-0.48,0.6-0.95,0.91-1.42c1.58-2.44,3.27-4.82,5.04-7.14c1.29-1.69,2.75-3.43,4.77-4.08 C362.36,518.36,363.68,518.43,365,518.71z"/> <path class="st2" d="M363.08,528.38c-0.22,1.54-0.38,3.09-0.53,4.62c-0.83,8.97-2.23,18.72-6.71,26.22c-0.92,1.55-1.97,3-3.19,4.34 c-1.74,1.9-3.78,3.56-6.11,4.69c-1.7,0.83-4,1.82-6.07,1.72c-0.3-0.01-0.59-0.05-0.87-0.11c-0.07-0.01-0.15-0.03-0.23-0.05 c-1.06-0.29-1.74-1.02-2.16-1.98c-0.96-2.19-0.53-5.55,0.01-7.34c0.11-0.4,0.24-0.79,0.36-1.18c0-0.01,0-0.01,0-0.01 c1.09-3.51,2.36-6.95,3.76-10.36c2.03-4.95,4.41-9.77,7.11-14.39c0.46-0.77,0.92-1.53,1.39-2.29c0.17-0.28,0.34-0.57,0.53-0.84 c0.3-0.48,0.6-0.95,0.91-1.42c0.03-0.03,0.07-0.05,0.11-0.07c3.14-1.88,8.01-3.16,11.55-1.6C363,528.33,363.04,528.35,363.08,528.38 z"/> <path class="st7" d="M236.12,582.09c-0.07,0.63-1.12,1.05-1.72,1.14c-3.31-1.29-7.5-0.77-11.23-0.96 c-7.2-0.36-14.03-4.22-18.41-9.92c-0.92-1.18-1.72-2.44-2.4-3.76c-0.66-1.29-1.2-2.65-1.62-4.05c-3.18-10.98-2.75-22.4-1.18-33.88 c1.38-10.08,3.64-20.21,5.1-30.15c1.04-7.02-1.14-11.67-4.65-15.48c0.02-0.17,0.03-0.33,0.05-0.49c0.77-8.33,1.15-16.66,2.13-23.74 c0.24-1.73,0.67-3.73,2.26-4.46c1.12-0.52,2.16-0.21,3.05,0.54c1.33,1.13,2.32,3.26,2.74,5.08c5.59,24.38,11.2,48.76,16.79,73.14 c2.45,10.66,4.89,21.32,7.34,31.98C235.52,571.99,236.66,577.04,236.12,582.09z"/> <path class="st2" d="M236.12,582.09c-0.07,0.63-1.12,1.05-1.72,1.14c-4.42,0.64-6.93-0.75-11.23-0.96 c-7.2-0.36-14.03-4.22-18.41-9.92c-0.92-1.18-1.72-2.44-2.4-3.76c-0.66-1.29-1.2-2.65-1.62-4.05c-3.18-10.98-2.75-22.4-1.18-33.88 c0.69-0.01,1.38-0.03,2.06-0.11c5.88-0.67,10.83-2.19,16.74-0.26c3.17,1.04,6.09,2.69,8.67,4.79c2.45,10.66,4.89,21.32,7.34,31.98 C235.52,571.99,236.66,577.04,236.12,582.09z"/> <path class="st8" d="M277.07,521.29c1.02,2.33,1.93,4.69,2.75,7.09C278.26,526.32,277.25,523.87,277.07,521.29z"/> <path class="st9" d="M430.12,432.83c-1.12,5.98-2.41,11.98-3.79,18.01c-4.44,19.42-23.95,56.16-49.73,48.31 c-0.12,0.1-0.23,0.19-0.34,0.3c-2.82-8.17,2.18-17.42,6.36-25.36c12.75-24.19,18.38-51.97,16.57-79.23 c-0.34-5.09-8.34-32.97,2.9-24.69c8.41,6.19,9.5,28.61,9.12,37.85c-0.3,7.17-1.25,15.47,3.93,20.43 C419.01,432.17,424.59,432.33,430.12,432.83z"/> <path class="st9" d="M209.16,363.42c-2.91,15.26-2.8,31.01-2.32,46.47c0.24,7.78,0.95,15.53,1.06,23.31 c0.08,5.61,0.34,11.22,0.7,16.82c0.33,5.13,0.79,10.22-0.44,15.28c-0.77,3.18-1.85,6.27-2.83,9.38c-1.11,3.52-2.91,6.93-5.26,9.84 c-0.08,0.1-0.15,0.2-0.23,0.29c-3.87-4.14-9.27-7.33-13.72-11.58c-8.94-8.54-18.6-25.79-22.11-37.94c1.95-1.26,4.02-2.36,5.9-3.73 c8.4-6.11,12-16.75,14.48-26.84C188.85,386.57,211.07,353.42,209.16,363.42z"/> <path class="st6" d="M291.66,646.57c10.82-25.94-6.93-57.6-1.46-85.17c1.31-6.57,3.88-12.97,3.85-19.66 c-0.01-1.96-0.67-3.8-1.77-5.46c-0.46,0.25-1.03,0.33-1.69,0.13c-2.42-0.76-4.74-1.74-6.79-3.24c-1.47-1.07-2.17-2.64-3.28-4.02 c-1.05-1.31-2.31-2.45-3.37-3.79c-2.36-2.98-4.27-6.29-5.88-9.72c-3.23-6.91-5.2-14.33-6.98-21.73c-1.26-5.26-3.29-11.99-8.69-12.3 c-3.04-0.18-5.8,2.12-7.08,4.89c-1.28,2.77-1.37,5.92-1.33,8.97c0.63,45.22,25.2,88.28,21.67,133.36c-0.43,5.49-0.7,11.75,1.24,16.9 c1.37,3.64,10.37,14.01,17.36,19.17c0.56-1.33,1.07-2.69,1.55-4.05c0.01-0.03,0.02-0.05,0.03-0.07c0.7-2.03,1.31-4.07,1.84-6.15 c0.05-0.21,0.11-0.41,0.15-0.61c0.08-0.3,0.16-0.63,0.24-0.94l-0.01-0.05c0.13-0.58,0.26-1.16,0.38-1.74 C291.8,651.43,291.24,647.56,291.66,646.57z"/> <path class="st6" d="M322,573.23c-1.78,11.03-3.8,22.14-10.21,31.29c-1.74,2.49-9.07,17.03-11.81,15.15 c-1.81-1.24,0.75-16.43,0.27-18.57c-6.76-30.2,7.77-54.4,20.59-79.14c2.58-4.98,8.61-19.93,15.45-20.82 c10.88-1.42,7.43,18.02,5,23.21C333.54,540.84,324.97,554.79,322,573.23z"/> <path class="st10" d="M356.89,383.94c-1.96,1.95-3.47,4.31-5.08,6.56c-5.04,7.04-11.04,11.84-19.41,14.24 c-5.37,1.53-11.05,1.5-16.53,2.6c-10.77,2.17-21.91,1.13-32.8-0.32c-4.7-0.62-9.69-1.45-13.2-4.64c-2.93-2.66-4.35-6.54-6.27-9.99 c-3.81-6.82-9.97-12.3-17.18-15.3c-0.35,5.55,3.82,7.81,8.03,10.22c5.36,3.07,7.08,7.32,9.81,12.61 c4.58,8.85,13.06,13.02,22.69,12.81c1.44-0.03,2.91-0.04,4.29,0.39c2.33,0.74,3.87,2.6,5.94,3.76c1.83,1.02,3.97,1.46,6.06,1.62 c4.69,0.37,9.31-0.93,13.09-3.7c3.93-2.88,7.65-3.47,12.39-4.28c5.25-0.89,9.75-3.43,14.13-6.38c8.91-5.99,15.2-15.06,21.29-23.91 C361.37,380.43,358.86,381.98,356.89,383.94z"/> <path class="st6" d="M267.68,378.49c4.38-2.98,9.86-4.3,15.12-3.64s10.24,3.3,13.75,7.27c1.89,2.14,5.77,1.26,8.57,1.85 c2.23,0.46,4.57,0.81,6.77,0.2c2.78-0.77,4.9-2.94,7.29-4.55c6.77-4.55,16.39-4.36,22.97,0.47c2.45-0.44,4.49,1.17,5.66,3.37 c1.17,2.2,1.1,4.9,0.25,7.24c-0.85,2.34-2.4,4.35-4.12,6.16c-2.76,2.9-6.05,5.39-9.84,6.66c-6.52,2.19-13.71,0.6-20.49,1.76 c-2.95,0.5-5.8,1.53-8.77,1.99c-5.33,0.83-10.75-0.18-16.04-1.19c-5.59-1.07-11.25-2.15-16.42-4.54c-2.96,0.3-5.71-1.68-7.38-4.14 c-1.67-2.46-2.25-5.51-2.31-8.48c-0.04-1.93,0.13-3.89,0.86-5.68C264.26,381.45,266.09,379.57,267.68,378.49z"/> <path class="st6" d="M379.79,349.12c-1.63-0.33-3.23,0.54-4.66,1.39c-4.17,2.45-8.56,5.13-10.75,9.45 c-1.74,3.42-1.85,7.46-3.3,11.02c-2.68,6.58-15.35,6.41-17.29,9.46c-1.86,2.92,2.34,6.51,1.64,9.92c-0.4,1.9-1.15,3.72-2.22,5.33 c-2.97,4.49-7.98,7.34-13.2,8.66c-5.23,1.32-10.69,1.26-16.07,0.92c-2.04-0.13-4.05-1.58-5.99-1.73c-1.65-0.13-3.23,1.03-4.98,1.01 c-5.2-0.08-11.51,1.79-13.41,1.81c-6.55,0.08-13.46-1.06-18.57-5.17c-5.1-4.11-7.68-11.85-4.37-17.51c0.3-0.52,0.65-1.07,0.97-1.63 c0.78-1.37,1.34-2.81,0.52-4.04c-0.4-0.6-1.06-0.96-1.69-1.3c-5.21-2.8-10.42-5.59-15.62-8.39c-3.66-1.96-3.71-7.97-3.5-12.11 c0.2-4.15,0.83-8.63-1.37-12.16c-1.77-2.85-5-4.39-8.05-5.79c-2.48-1.13-4.96-2.27-7.45-3.4c-2.89-1.32-7.07-1.77-9.01-4.31 c3.32,8.95,6.65,17.9,9.97,26.85c3.73,10.06,8.04,20.84,17.17,26.49c2.37,1.46,5.01,2.53,7.45,3.88c1.41,0.77,2.76,1.65,3.95,2.73 c2.72,2.49,4.37,5.91,5.95,9.24c2.47,5.21,8.42,8.13,13.7,9.61c2.62,0.74,5.34,1.19,8.06,1.09c1.57-0.06,3.14-0.2,4.69,0.16 c2.05,0.48,3.85,2.17,5.9,2.9c2.42,0.85,4.99,1.25,7.55,1.16c2.5-0.1,4.98-0.67,7.28-1.66c2.1-0.9,3.93-3.09,6.06-3.61 c1.78-0.43,3.67-0.06,5.47-0.33c4.06-0.63,8.03-1.83,11.77-3.53c7.31-3.32,13.77-8.58,18.31-15.23c1.42-2.08,2.62-4.62,4.88-5.91 c1.14-0.65,2.38-1.1,3.54-1.71c4.36-2.29,5.51-6.89,8-10.74c2.85-4.39,8.82-8.01,10.69-13.19c0.98-2.71,5.44-7.68,5.44-13.22 C385.26,346.43,382.26,349.63,379.79,349.12z"/> <path class="st3" d="M407.13,242.19c-1.75,9.25-1.98,15.22-4.63,24.26c-0.12,0.42-0.49,0.73-0.74,1.09 c-2.92,4.14-6.62,8.59-6.59,13.67c0.05,7.12,0.08,14.38-2.1,21.16c-1.18,3.65-1.82,7.88-4.16,10.93c2.47,4.79,3.02,10.77,2.27,16.11 c-0.78,5.53-1.78,11.09-4.09,16.17s-6.08,9.69-11.17,12c-6.16,2.8-13.58,3.08-19.85,0.53c-10.5-4.28-21.49-8.92-28.47-17.87 c-2.06-2.64-3.7-5.58-5.24-8.57c-9.37-18.21-14.99-38.36-16.41-58.8c-0.11-1.5-0.18-3.01-0.24-4.52c-0.05-1.4-0.29-2.39-0.28-3.28 c-0.94-0.05-1.87-0.02-2.81,0.09l0,0.05c0.16,3.32,0.2,6.64,0.13,9.97c-0.36,18.67-4.18,37.28-11.26,54.56 c-1.27,3.1-2.65,6.17-4.48,8.98c-6.18,9.51-16.73,15.09-26.83,20.26c-6.03,3.09-13.44,3.44-19.82,1.19 c-5.26-1.86-9.42-6.12-12.16-10.99c-2.74-4.86-4.22-10.32-5.47-15.76c-1.2-5.26-1.18-11.27,0.87-16.25 c-0.03,0.06-2.99-5.46-3.19-5.92c-1.32-3.14-2.69-6.25-3.82-9.47c-2.95-8.4-3.29-16.81-3.98-25.58 c-0.81-10.24-1.62-20.49-2.44-30.73c-0.05-0.72,0.04-10.18,0.82-14.33c0.54-2.87,0.36-7.61,2.49-9.61 c7.44-7.02,32.15,9.56,32.41,9.21c0.49,0.35,0.99,0.7,1.48,1.05c4.42,3.16,8.26,7.2,11.45,11.6c2.92,4.02,5.87,8.07,9.61,11.34 c1.93,1.68,4.09,3.15,6.42,4.22c2.19,1,4.52,1.64,6.93,1.74c5.04,0.23,17.9-3.38,22.96-1.36c11.58-2.72,25.23-3.99,36.96-2.19 c0.08-0.12,17.51-13.78,21.28-16.58c10.17-7.54,30.14-26.37,40.71-18.16C408.78,226.34,408.05,237.31,407.13,242.19z"/> <path class="st11" d="M326.27,358.26c-1.18-1.52-0.11-7.12,0.09-8.64c0.47-3.62,1.4-7.18,2.76-10.57 c2.81-6.95,9.01-12.24,16.43-13.56c3.96-0.7,8.98-0.43,12.63,1.34c1.78,0.87,3.24,2.23,3.31,4.32c0.2,5.77-0.05,13.82-3.91,18.51 c-3.69,4.48-10.51,5.41-15.89,4.35c-1.84-0.36-3.61-1.05-5.46-1.3c-1.85-0.26-3.91-0.01-5.29,1.25c-1.14,1.04-2.23,5.95-4.41,4.54 C326.43,358.43,326.35,358.35,326.27,358.26z"/> <path class="st12" d="M357.01,345.59c-1.33,1.94-3.09,3.58-5.16,4.78c-4.21,2.43-9.88,2.99-14.28,0.83 c-1.21-0.6-2.32-1.41-3.28-2.44c-0.33-0.36-0.64-0.75-0.91-1.15c-6.33-9.67,5.72-19.83,15.2-20.08c5.03-0.13,9.99,1.08,11,6.42 C360.37,338.06,359.32,342.25,357.01,345.59z"/> <path class="st13" d="M357.01,345.59c-0.11-0.33-0.2-0.73-0.27-1.19c-0.25-1.62-0.06-3.27-0.05-4.91c0.01-4.06-2.29-7.36-6.26-8.53 c-6.19-1.82-13.17,1.76-15.28,7.83c-1.01,2.89-0.83,6.1,0.35,8.91c0.33,0.77,1.11,2.2,2.07,3.5c-1.21-0.6-2.32-1.41-3.28-2.44 c-0.33-0.36-0.64-0.75-0.91-1.15c-6.33-9.67,5.72-19.83,15.2-20.08c5.03-0.13,9.99,1.08,11,6.42 C360.37,338.06,359.32,342.25,357.01,345.59z"/> <ellipse transform="matrix(0.9991 -0.0432 0.0432 0.9991 -14.1927 15.2313)" cx="345.25" cy="335.94" rx="7.73" ry="9.17"/> <circle class="st14" cx="346.81" cy="331.55" r="1.75"/> <path class="st15" d="M341.34,350.63c2.19,0.75,4.69,0.51,6.7-0.65c0.42-0.24,0.87-0.69,0.68-1.13c-0.2-0.45-0.83-0.41-1.31-0.29 c-1.17,0.3-2.33,0.67-3.53,0.77c-1.2,0.1-2.48-0.09-3.44-0.82c-0.77-0.58-2.8-4.09-3.22-1.74 C336.91,348.54,340.04,350.19,341.34,350.63z"/> <path class="st11" d="M290.33,355.06c0.99-1.65-0.77-7.08-1.15-8.56c-0.91-3.54-2.26-6.96-4.04-10.15 c-3.63-6.55-10.44-11.05-17.96-11.45c-4.02-0.21-8.96,0.67-12.37,2.87c-1.66,1.08-2.94,2.61-2.76,4.69 c0.51,5.75,1.74,13.71,6.15,17.9c4.21,3.99,11.09,4.08,16.3,2.37c1.78-0.58,3.45-1.48,5.26-1.96c1.81-0.48,3.88-0.49,5.4,0.59 c1.25,0.89,2.94,5.63,4.93,3.97C290.19,355.25,290.26,355.16,290.33,355.06z"/> <path class="st12" d="M258.27,346.25c1.56,1.76,3.5,3.18,5.7,4.11c4.48,1.89,10.18,1.76,14.28-0.93c1.12-0.74,2.13-1.68,2.96-2.82 c0.29-0.4,0.54-0.82,0.76-1.26c5.1-10.37-8.1-18.98-17.55-18.07c-5.01,0.49-9.78,2.3-10.13,7.72 C254.02,339.18,255.57,343.21,258.27,346.25z"/> <path class="st13" d="M258.27,346.25c0.07-0.34,0.11-0.74,0.13-1.21c0.05-1.64-0.34-3.26-0.55-4.88c-0.51-4.03,1.37-7.59,5.17-9.23 c5.92-2.56,13.29,0.13,16.12,5.9c1.35,2.74,1.57,5.95,0.74,8.88c-0.23,0.8-0.84,2.32-1.63,3.72c1.12-0.74,2.13-1.68,2.96-2.82 c0.29-0.4,0.54-0.82,0.76-1.26c5.1-10.37-8.1-18.98-17.55-18.07c-5.01,0.49-9.78,2.3-10.13,7.72 C254.02,339.18,255.57,343.21,258.27,346.25z"/> <ellipse transform="matrix(0.9968 -0.0793 0.0793 0.9968 -25.8083 22.3596)" cx="268.46" cy="335.94" rx="7.73" ry="9.17"/> <circle class="st14" cx="270.34" cy="332.45" r="1.75"/> <path class="st15" d="M274.44,349.34c-2.08,1.01-4.6,1.08-6.73,0.18c-0.45-0.19-0.95-0.58-0.81-1.04c0.14-0.47,0.78-0.51,1.26-0.45 c1.2,0.15,2.39,0.38,3.6,0.34s2.45-0.39,3.32-1.23c0.69-0.67,2.28-4.4,2.98-2.12C278.58,346.72,275.67,348.74,274.44,349.34z"/> <path d="M303.8,393.46c2.45,0.58,4.91-0.59,6.95-1.86c2.45-1.53,5.3-3.18,5.67-6.37c0.08-0.71-5.32-3.83-5.97-4.17 c-0.65-0.34,3.45,4.71,2.71,4.64c-2.86-0.28-5.71-0.55-8.57-0.83c-1.77-0.17-5.5-1.81-6.99-0.81 C294.06,386.44,302.08,393.05,303.8,393.46z"/> <path class="st2" d="M220.23,276.27c-0.64,3.2-1.66,6.36-1.76,9.62c-0.15,5.01,1.87,9.8,3.86,14.4c1.26,2.92,3.44,6.38,6.58,5.88 c2.44-0.39,3.75-2.98,5.36-4.86c4.15-4.83,11.77-5.7,15.56-10.82c3.12-4.21,2.71-10.05,1.47-15.14 c-2.5-10.27-7.82-19.83-15.23-27.37c-2.32-2.36-4.95-4.58-8.14-5.46c-2.5-0.69-6.54-0.43-8.3,1.83c-1.82,2.35-0.26,5.92,0.18,8.65 C221.03,260.69,221.76,268.58,220.23,276.27z"/> <path class="st2" d="M362.28,287.53c4.92,2.15,11.43,2.21,14.93,7.81c1.13,1.81,2.12,4.08,4.19,4.58c2.02,0.49,4.03-1.11,4.93-2.99 c2.75-5.72-1.77-12.31-1.49-18.64c0.4-9.15,10.55-15.77,10.59-24.94c0.01-2.65,0.84-5.59,0.47-8.21s-2.16-5.23-4.77-5.68 c-2.68-0.46-5.18,1.42-7.01,3.43c-5.96,6.56-9,15.77-16.26,20.85c-3.21,2.24-7.15,3.6-9.58,6.67c-2.24,2.81-2.8,6.73-1.95,10.22 C357.28,284.47,359.53,286.33,362.28,287.53z"/> <path class="st6" d="M244.07,242.64c6.58,7.08,10.43,16.22,13.87,25.25c1.27,3.34,2.17,7.87-0.79,9.87c-2,1.35-4.65,0.69-7.03,0.27 c-6.04-1.07-12.42-0.21-17.95,2.45c0.6-2.41,2.9-4.29,5.38-4.41c-3.91-1.72-8.52-1.78-12.47-0.15c2.57-6.13,8.55-10.71,15.14-11.58 c-6.03-0.03-12.06-0.05-18.09-0.08c2.63-3.31,6.65-5.48,10.86-5.87c-2.53-0.13-5.07-0.27-7.6-0.4c0.99-0.93,1.98-1.86,2.97-2.79 c-3.31,0.38-6.57,1.25-9.62,2.59c-0.21-5.14,7.88-10.4,12.98-9.67c-3.8-0.23-10.53,0.15-14.33-0.08c2.72-1.75,7.83-3.77,10.54-5.51 c-6.48-5.81-13.6-2.19-13.6-2.19c-0.25,0.01,2.62-6.6,3.82-7.31c2.15-1.27,5.66-0.71,7.99-0.36 C233.03,233.69,239.38,237.59,244.07,242.64z"/> <path class="st6" d="M379.08,235.63c-5.96,6.24-11.92,12.49-17.89,18.73c-2.12,2.22-4.29,4.51-5.39,7.37 c-1.1,2.86-0.88,6.46,1.35,8.56c2.35,2.21,6.07,2.1,9.17,1.2s6.06-2.44,9.28-2.64c4.11-0.27,8.29,1.88,10.47,5.37 c-0.86-4.45-4.33-8.29-8.66-9.6c4.51,0.25,9.02,0.5,13.52,0.75c-1.93-4.62-7.56-7.34-12.38-5.97c5-2.94,11.54-3.06,16.64-0.3 c-3.35-4.21-8.41-7.03-13.76-7.67c3.95,0.1,7.91,0.19,11.86,0.29c-2.4-0.55-6.02-5.91-6.02-5.91s8.86-1.7,10.08,0.44 c-3.54-5.89-10.24-9.75-10.24-9.75s7.14,0.98,12.06,5.76c-0.52-2.54-1.04-5.08-1.55-7.63c0.96,0.31,1.92,0.62,2.89,0.93 c0.24,0.08-2.11-5.49-2.84-6.16c-1.57-1.44-3.61-2.48-5.76-2.29C387.02,227.51,382.24,232.31,379.08,235.63z"/> <path class="st16" d="M337.48,269.41c-1.63,2.35-0.39,5.35-0.44,7.94c-0.07,3.75-3.28,4.88-5.15,7.65 c-2.46,3.67-2.63,8.55-2.16,12.8c0.5,4.45,3.53,8.05,4.51,12.41c0.98,4.36,0.8,9.16-1.46,13.03c-2.17-5.68-4.33-11.36-6.5-17.04 c-0.14-0.37-0.29-0.76-0.58-1.03c-0.83-0.78-2.28-0.14-2.84,0.86c-0.56,0.99-0.59,2.2-0.92,3.29c-0.33,1.09-1.22,2.21-2.36,2.1 c-4.47-0.42,0.02-10.97,0.54-12.79c2.02-7.08-1.85-7.78-6.5-11.31c-1.25-0.95-1.96-2.42-2.63-3.83c-2.16-4.56-4.32-9.13-6.48-13.69 c0.45,0.96-1.87,5.49-2.2,6.39c-1.1,3.02-2.29,6.01-3.45,9.01c-0.24,0.62-0.48,1.24-0.84,1.79c-1.4,2.13-4.16,2.55-5.97,4.23 c-4.26,3.96,1.79,11.48,2.69,17.22c0.25,1.61,0.1,3.84-1.51,4.13c-1.12,0.2-2.1-0.83-2.53-1.89c-0.42-1.07-0.55-2.26-1.19-3.2 c-0.65-0.94-2.15-1.46-2.91-0.61c-0.26,0.29-0.38,0.69-0.49,1.07c-1.67,5.85-3.34,11.69-5.01,17.53c-2.58-3.66-3.18-8.42-2.57-12.85 c0.6-4.43,3.31-8.28,3.42-12.76c0.09-3.55-0.57-7.13-1.83-10.45c-1.23-3.24-2.65-4.85-1-8.36c1.06-2.24,1.77-4.58,0.72-6.97 c-1.14-2.58-3.94-4.25-4.84-6.96c-1.1-2.5-5.35-9.99-6.53-12.4c2.19,1,11.05,6.68,13.35,5.96c5.32-1.67,17.9-3.38,22.96-1.36 c11.58-2.72,25.23-3.99,36.96-2.19C338.41,262.07,340.88,264.52,337.48,269.41z"/> <path class="st16" d="M223.98,557.75c-0.04-0.57-0.85-0.63-0.96-0.07c-1.9,9.18-5.13,27.04-0.45,22.13 C227.73,574.39,224.54,565.72,223.98,557.75z"/> <path class="st16" d="M206.95,564.19c-0.88,2.73-1.66,5.42-2.19,8.15c-0.91-1.18-1.72-2.44-2.39-3.76c0.03-2.22,0.21-4.43,0.43-6.48 c0.17-1.54,2.22-7.39,3.49-11.7c0.41-1.39,2.44-1.26,2.65,0.17C209.59,554.98,208.37,559.83,206.95,564.19z"/> <path class="st16" d="M355.85,559.22c-0.92,1.55-1.97,3-3.2,4.34c-0.52-2.85,0.27-7.99,1.01-11.75c0.15-0.76,1.26-0.71,1.32,0.07 C355.17,553.96,355.44,556.54,355.85,559.22z"/> <path class="st10" d="M328.61,515.91c-3.88,14.08-6.85,32.26-19.26,39.96c-2.95,1.83-5.01,4.56-6.34,7.71 c-0.01,0.01-0.01,0.01-0.01,0.02c-1.04,2.44-1.65,5.13-1.9,7.87l0,0.02c-0.21,2.19-0.19,4.42,0.01,6.56 c0.8,8.28,3.64,16.35,3.47,24.67c-0.03,1.6-0.18,3.18-0.41,4.75c-1.2,8.1-4.75,15.82-7.57,23.59c-2.49,6.86-4.54,20.66-4.95,20.21 c-0.12,0.58-0.66-3.97-0.8-6.83c-0.49-9.96-0.98-19.92-1.47-29.88c-0.49-9.97-0.98-19.94-1.48-29.92 c-0.94-18.98-1.96-38.39-8.09-56.27c2.3,3.05,5.8,5.22,9.61,5.6c0.18-0.9,0.71-3.61,0.79-4.06c2.76,0.11,4.75,3.68,4.75,3.68 c0.68-1.81,1.36-3.62,2.04-5.43c1.51,3.36,7.43,3.07,8.59-0.44c3.17,2.29,4.09,8.41,4.09,8.41c2.4-3.79,4.79-7.58,7.19-11.37 c0.52,0.62,3.33,3.94,4.22,4.98C323.6,525.15,326.1,520.53,328.61,515.91z"/> <path class="st16" d="M340.31,557.15c0.21-0.52,0.99-0.34,0.95,0.22c-0.16,2.47-0.37,5.61-0.41,5.86c-0.17,1.24-0.3,2.48-0.37,3.73 c-0.06,0.94,0,1.98,0,3.01c-0.3-0.01-0.59-0.05-0.87-0.11c-0.07-0.01-0.15-0.03-0.23-0.05c-1.06-0.29-1.74-1.02-2.16-1.98 c0-1.06,0.1-2.11,0.31-3.06C337.83,563.4,339.27,559.74,340.31,557.15z"/> <path class="st2" d="M291.04,654.01c-0.05,0.2-0.1,0.4-0.15,0.61v0.01c-0.53,2.08-1.14,4.12-1.84,6.15 c-0.01-0.01-0.02,0.02-0.03,0.07c-3,8.59-7.56,16.64-13.42,23.6c-4.4,5.22-11.24,8.02-17.87,9.66c-6.62,1.64-13.97,0.99-19.73-2.67 c-4.96-3.16-8.37-8.29-10.37-13.86c-0.36-1.01-0.68-2.03-0.96-3.04c-0.47-1.79-0.83-3.61-1.1-5.44c-0.73-5.02-0.79-10.16-0.84-15.26 c-0.05-6.34,3.7-9.01,7.52-13.32c0.76-0.86,1.51-1.77,2.24-2.79c1.2-1.67,2.2-3.42,3.05-5.24c2.48,1.29,4.79,3.1,6.66,5.06 c5.06,5.28,9.32,11.99,16.23,14.39c4.81,1.67,9.92,0.9,15.06,0.34c2.85-0.3,5.7-0.54,8.5-0.26c0.46,0.05,0.94,0.11,1.41,0.2 c1.83,0.32,3.68,0.9,5.46,1.72C290.92,653.95,290.98,653.98,291.04,654.01z"/> <path class="st16" d="M233.23,654.91c1.11-1.55,2.12-0.55,1.7,1.31c-0.8,3.52-1.89,10.15-3.13,13.12c-1.09,2.62-2.46,5.56-4.16,8.22 c-0.37-1-0.68-2.02-0.95-3.04c-0.48-1.79-0.84-3.61-1.1-5.44C227.52,664.93,230.99,658.04,233.23,654.91z"/> <path class="st16" d="M238.79,684.8c-0.25,2.1,1.37,4.65,3.86,3.59c1.02-0.43,1.77-1.33,2.15-2.38c2.07-5.74,4.27-12.73,4.52-19.19 c0.04-1.06-1.31-1.51-1.91-0.64C243.89,671.29,239.29,680.63,238.79,684.8z"/> <path class="st16" d="M266.25,663.93c-0.01,0.01-0.02,0.02-0.03,0.03c-0.91,0.85-1.27,2.13-1.52,3.36 c-1.16,5.69-2.19,24.93,3.65,21.73C275.23,685.29,267.53,662.79,266.25,663.93z"/> <path class="st2" d="M347.38,628.92c0,3.19-0.94,7.05-2.19,10.39l-1.74,3.92c-0.2,0.39-0.41,0.76-0.62,1.1 c-3.31,5.49-8.09,11.38-13.81,14.25c-5.69,2.85-13.2,4.4-19.45,3.24c-3.63-0.68-17.32-7.03-17.92-10.54 c-1.21-6.99-0.3-17.5,3.26-23.75c4.01-7.05,10.02-10.87,16.9-14.66c8.12-4.46,16.66-8.23,25.39-11.31 C341.16,610.5,347.38,619.13,347.38,628.92z"/> <path class="st16" d="M302.97,635.83c-1.13,6.29-5.59,18.47-0.86,19.36c4.72,0.89,2.64-13.41,2.25-19.29 C304.3,635.08,303.12,635.02,302.97,635.83z"/> <path class="st16" d="M323.41,633.24c-0.33-0.61-1.26-0.37-1.24,0.33c0.14,7.67-1.97,25.45,4.25,23.85 C333.72,655.54,327.16,640.15,323.41,633.24z"/> <path class="st16" d="M345.2,639.3l-1.74,3.92c-1.97-4.6-4.29-12.2-5.68-16.94c-0.22-0.76,0.83-1.21,1.23-0.51 C341.17,629.55,343.72,634.91,345.2,639.3z"/> <path class="st2" d="M318.24,383.21c-0.14-1.19-1.15-2.13-2.28-2.52c-3.37-1.18-6.19,0.33-9.63,0.44c-3.44-0.11-6.27-1.61-9.63-0.44 c-1.13,0.39-2.14,1.33-2.28,2.52c-0.18,1.56,1.13,2.88,2.45,3.75c1.31,0.87,2.83,1.67,3.45,3.12c0.45,1.06,0.34,2.31,0.89,3.32 c0.54,1.01,1.65,1.61,2.77,1.81c0.72,0.13,4.01,0.13,4.72,0c1.12-0.2,2.23-0.8,2.77-1.81c0.54-1.01,0.43-2.26,0.89-3.32 c0.62-1.45,2.14-2.25,3.45-3.12C317.11,386.1,318.43,384.78,318.24,383.21z"/> <path class="st4" d="M299.25,405.08c-2.01,0.61-4.44,1.37-4.93,3.42c-0.35,1.46,0.75,3.05,1.81,4.1c2.37,2.33,5.88,3.18,9.2,2.98 c7.21-0.44,6.96-1.27,9.92-2.79c0.83-0.43,1.18-1.15,1.82-1.83c0.65-0.68,1.1-1.63,0.94-2.55c-0.55-3.2-2.85-2.87-4.62-3.25 c-2.42-0.52-4.7-1.93-7.23-1.92c-1.72,0.01-3.32,0.73-4.92,1.26C300.65,404.68,299.96,404.87,299.25,405.08z"/> <path d="M313.94,405.26c-0.71-0.38-1.45-0.7-2.13-1.15c-0.71-0.47-1.37-1-1.99-1.58c-0.57-0.54-1.1-1.12-1.59-1.73 c-0.39-0.49-1.58-2.83-1.81-3.47c0.03,0.08-0.46,1.01-0.54,1.23c-0.54,1.44-1.83,2.79-2.92,3.85c-1.23,1.19-2.66,2.17-4.24,2.83 c0.99,1.08,2.55,0.55,3.71,0.09c0.63-0.25,1.26-0.55,1.91-0.74c0.7-0.21,1.49,0.41,2.21,0.41c0.57,0,0.93-0.33,1.45-0.45 c0.51-0.12,0.93,0.26,1.37,0.43c0.55,0.22,1.1,0.46,1.67,0.64c0.51,0.16,1.06,0.29,1.6,0.24 C313.17,405.84,313.53,405.57,313.94,405.26z"/> <path class="st3" d="M306.55,117.43c-0.32,5.94-1.91,11.8-4.56,17.12c-6.09,12.18-16.09,23.19-28.65,12.25 c-1.8-1.58,0.04-14.25-1.35-16.19c-0.69-0.96-4.79,8.93-5.35,7.88c-5.49-10.21-4.15-22.96-1.14-34.17c3.29-0.94,4.6,7.17,6.8,11.36 c3.13-2.19,6.26-4.38,9.39-6.57c5.44,0.98,6.31,10.68,6.31,10.68c5.7-3.51,11.4-7.04,17.11-10.55c0.44,1,0.87,2,1.3,3 C306.51,113.98,306.64,115.71,306.55,117.43z"/> <path class="st16" d="M310.28,81.5c-4.5-0.74-8.99-1.47-13.49-2.21c-2.53-0.41-5.07-0.83-7.63-0.85c-2.58-0.02-5.24,0.34-7.65-0.53 c-2.42-0.87-4.47-3.57-3.48-5.95c-1.76,0.46-5.97,3.47-10,5.63c7.63-11.94,19.38-21.7,31.22-27.17c1.78-0.82,3.56-1.57,5.36-2.24 c3.74,1.41,7.43,4.37,7.36,8.33c-0.08,4.45-4.91,8.11-4.06,12.47c0.48,2.45,2.64,4.17,3.9,6.33 C313.05,77.48,312.75,81.11,310.28,81.5z"/> <path class="st3" d="M357.87,67.84c-4.13,10.49-8.27,20.98-12.4,31.46c-0.21-0.22-0.42-0.44-0.64-0.67 c-4.48-4.57-9.61-7.45-14.06-7.92c-1.31-0.13-2.74-0.09-4.26,0.15c-0.7-4.61-1.39-9.22-2.09-13.83c-0.38-2.56-0.77-5.18-0.38-7.74 c0.4-2.6,1.57-5.02,1.98-7.61c0.4-2.59-0.22-5.66-2.48-6.97c-3.17-1.83-4.5-6.31-4.17-10.42c5.51-0.85,10.97-1,16.29-0.45 c8.18,0.86,16.3,3.43,23.95,7.53C361.85,56.21,359.94,62.58,357.87,67.84z"/> <path class="st3" d="M384.07,94.11c-0.79,4.02-3.38,7.41-5.89,10.65c-6.2,8-12.41,16-18.61,23.99c-1.08-8.67-4.17-16.57-9.23-23.59 c0.56-2.87,1.29-5.7,2.2-8.48c0.53-1.63,5.52-10.79,5.02-11.74c0.63,1.2,1.25,2.4,1.88,3.6c5.06-2.14,9.03-6.72,10.43-12.04 c0.5,0.6,1,1.2,1.51,1.79C379.08,78.48,385.58,86.56,384.07,94.11z"/> <path class="st16" d="M405.8,152.75L405.8,152.75c-0.14,0.3-0.29,0.6-0.43,0.89c-2.33,4.72-5.7,9.03-10.17,11.82 c-4.48,2.78-10.12,3.89-15.14,2.3c-4.99-1.58-8.96-5.59-14-7.01c-3.25-0.92-7.15-0.92-10.31-1.89c2.03-5.58,3.35-11.2,3.92-16.74 c2.49-0.83,5.12-1.35,7.63-2.13c10.77-3.33,19.68-11.46,25.28-21.25c2.41-4.21,4.31-8.82,7.63-12.36c0.69-0.73,1.36-1.38,2.01-1.93 c2.57,7.84,4.14,16.06,4.69,24.55C407.42,136.87,407.04,144.82,405.8,152.75z"/> <path class="st16" d="M368.33,178.96c-0.64,6.14-11.44,4.86-17.61,4.91c-2.88,0.02-5.84-0.34-8.42-1.61 c3.06-3.6,5.63-7.3,7.79-11.13c1.06-1.9,2.05-3.81,2.95-5.73c1.53,0.06,2.95,0.12,4.14,0.09c1.65-0.05,3.51-0.02,4.67,1.16 c0.92,0.94,1.12,2.35,1.42,3.64C364.04,173.6,368.68,175.57,368.33,178.96z"/> <path class="st16" d="M401.01,172.2c-2.16,6.41-4.89,12.74-8.16,18.94c-2.19-0.75-4.4-1.56-6.66-1.69 c-2.49-0.15-4.96,0.54-7.45,0.65c-2.5,0.11-5.28-0.51-6.69-2.58c-0.81-1.18-1.03-2.66-1.23-4.07c-0.63-4.41-5.93-11.36-1.88-13.22 c7.46-3.43,14.35,9.02,22.34,7.12C394.89,176.49,398.24,174.67,401.01,172.2z"/> <g> <path class="st3" d="M325.44,389.09c7.95-0.46,15.93-0.91,23.92-0.99c7.99-0.08,16,0.21,23.93,1.24 c7.93,1.04,15.77,2.85,23.24,5.69c7.46,2.84,14.55,6.73,20.69,11.82c-6.24-4.96-13.39-8.69-20.87-11.35 c-7.49-2.67-15.31-4.31-23.19-5.17c-7.89-0.86-15.85-0.99-23.78-0.74c-7.94,0.25-15.87,0.87-23.81,1.49 c-0.55,0.04-1.03-0.37-1.08-0.92c-0.04-0.55,0.37-1.03,0.92-1.08C325.42,389.09,325.43,389.09,325.44,389.09z"/> </g> <g> <path class="st3" d="M325.24,384.52c32.84-8.53,68.25-6.27,99.55,6.25c-31.55-11.89-66.78-13.39-99.03-4.32 c-0.53,0.15-1.08-0.16-1.23-0.69c-0.15-0.53,0.16-1.08,0.69-1.23C325.23,384.52,325.24,384.52,325.24,384.52z"/> </g> <g> <path class="st3" d="M325.03,392.62c19.02,1.72,37.26,9.92,51.05,22.8c-14.24-12.39-32.58-19.79-51.19-20.81 c-0.55-0.03-0.97-0.5-0.94-1.05c0.03-0.55,0.5-0.97,1.05-0.94C325,392.62,325.02,392.62,325.03,392.62z"/> </g> <g> <path class="st3" d="M290.01,389.43c-7.94-0.62-15.87-1.24-23.81-1.49c-7.94-0.25-15.89-0.13-23.78,0.74 c-7.88,0.87-15.7,2.5-23.19,5.17c-7.48,2.66-14.62,6.39-20.87,11.35c6.14-5.09,13.23-8.99,20.69-11.82 c7.47-2.84,15.32-4.66,23.24-5.69c7.93-1.04,15.95-1.33,23.93-1.24c7.99,0.08,15.96,0.54,23.92,0.99c0.55,0.03,0.97,0.5,0.94,1.06 c-0.03,0.55-0.5,0.97-1.06,0.94C290.03,389.43,290.02,389.43,290.01,389.43z"/> </g> <g> <path class="st3" d="M289.82,384.79c-32.24-9.07-67.48-7.57-99.03,4.32c31.3-12.52,66.71-14.78,99.55-6.25 c0.53,0.14,0.86,0.68,0.72,1.22c-0.14,0.53-0.68,0.86-1.22,0.72C289.83,384.8,289.82,384.8,289.82,384.79z"/> </g> <g> <path class="st3" d="M290.7,392.96c-18.62,1.02-36.95,8.42-51.19,20.81c13.79-12.88,32.03-21.08,51.05-22.8 c0.55-0.05,1.04,0.36,1.09,0.91s-0.36,1.04-0.91,1.09C290.72,392.96,290.71,392.96,290.7,392.96z"/> </g> <path class="st6" d="M320.93,494.83c-5.36,3.14-11.68,3.03-18.18,3.49c-10.11,0.71-16.46-10.38-24.93-15.95 c-4.53-2.97-9.87-4.39-14.77-6.69c-4.9-2.3-9.68-5.93-11.08-11.16c16.26-6.99,34.35,5.7,52.04,5.04c8.02-0.3,43.22-20.54,47.05-5.17 c2.25,9.01-11.21,8.76-15.75,12.64c-4.93,4.21-6.47,10.87-11.03,15.26C323.22,493.31,322.1,494.15,320.93,494.83z"/> <ellipse class="st2" cx="280.33" cy="385.39" rx="1.21" ry="0.66"/> <ellipse class="st2" cx="334.39" cy="392.42" rx="1.1" ry="0.71"/> <circle class="st2" cx="338.72" cy="392.42" r="0.71"/> <circle class="st2" cx="331.98" cy="387.02" r="0.76"/> <circle class="st2" cx="273.31" cy="385.24" r="0.66"/> <circle class="st2" cx="276.45" cy="390.16" r="0.82"/> <path class="st6" d="M495.08,431.62c-1.13-1.48-2.53-3.08-3.66-4.84c-9.71-15.15-30.82-13.85-39.11,1.89 c-4.05,7.69-3.81,15.51,0.43,23.24c0.86,1.56,1.92,3.03,2.95,4.5c9.26,13.16,18.53,26.32,27.89,39.6c0.45-0.23,0.87-0.4,1.23-0.64 c13.4-9.2,26.76-18.46,40.21-27.59c6.25-4.24,10.27-9.79,11.51-17.05c1.78-10.39-3.69-20.8-13.21-25.11 c-7.22-3.26-14.15-2.45-20.73,1.46C500.1,428.56,497.63,430.07,495.08,431.62z"/> <path class="st2" d="M174.01,259.21c-0.64-0.44-1.4-0.9-2.07-1.45c-5.8-4.77-14.02-1.55-15.29,5.77c-0.62,3.58,0.48,6.65,3.16,9.17 c0.54,0.51,1.15,0.96,1.75,1.41c5.37,4.04,10.74,8.07,16.16,12.15c0.15-0.15,0.29-0.27,0.4-0.41c4.14-5.37,8.26-10.77,12.43-16.12 c1.94-2.49,2.82-5.21,2.38-8.25c-0.63-4.36-4.14-7.79-8.47-8.28c-3.29-0.37-5.93,0.84-8.04,3.24 C175.62,257.35,174.83,258.26,174.01,259.21z"/> <path class="st2" d="M443.8,276.03c-0.48-0.61-1.07-1.27-1.56-2c-4.14-6.26-12.95-5.59-16.31,1.03c-1.64,3.24-1.5,6.5,0.32,9.7 c0.37,0.65,0.82,1.25,1.26,1.86c3.94,5.44,7.9,10.87,11.88,16.36c0.19-0.1,0.36-0.17,0.51-0.28c5.54-3.92,11.06-7.87,16.62-11.76 c2.58-1.81,4.23-4.15,4.7-7.19c0.68-4.35-1.67-8.66-5.67-10.4c-3.03-1.32-5.92-0.94-8.64,0.74 C445.88,274.72,444.86,275.37,443.8,276.03z"/> <circle class="st2" cx="186.64" cy="631.88" r="11.89"/> <circle class="st6" cx="408.88" cy="537.67" r="8.34"/> <circle class="st4" cx="386.18" cy="606.12" r="14.82"/> <circle class="st2" cx="423.06" cy="574.81" r="5.84"/> <circle class="st6" cx="469.75" cy="360.95" r="8.41"/> <circle class="st6" cx="483.99" cy="554.62" r="5.83"/> <circle class="st6" cx="152.91" cy="575.19" r="6.23"/> <path class="st2" d="M117.66,522.58c-0.92-0.64-2.02-1.29-2.99-2.09c-8.35-6.87-20.17-2.23-22,8.3c-0.89,5.15,0.69,9.57,4.54,13.2 c0.78,0.73,1.66,1.38,2.52,2.03c7.72,5.81,15.45,11.62,23.25,17.48c0.21-0.22,0.42-0.39,0.58-0.59c5.96-7.73,11.88-15.49,17.89-23.2 c2.79-3.58,4.06-7.49,3.43-11.87c-0.9-6.27-5.95-11.21-12.19-11.91c-4.73-0.53-8.54,1.21-11.58,4.66 C119.96,519.91,118.83,521.23,117.66,522.58z"/> <circle class="st6" cx="153.16" cy="492.94" r="8.13"/> <circle class="st4" cx="78.27" cy="445.51" r="10.55"/> <circle class="st6" cx="131.18" cy="364.3" r="5.55"/> </svg>